<?xml version="1.0" standalone="yes"?><svg xmlns="http://www.w3.org/2000/svg" version="1.1" width="205" height="205" viewBox="0 0 205 205" shape-rendering="crispEdges"><rect x="0" y="0" width="205" height="205" fill="#E26E42"/><path fill="#800000" d="M20 20h5v5H20V20M25 20h5v5H25V20M30 20h5v5H30V20M35 20h5v5H35V20M40 20h5v5H40V20M45 20h5v5H45V20M50 20h5v5H50V20M60 20h5v5H60V20M65 20h5v5H65V20M75 20h5v5H75V20M80 20h5v5H80V20M95 20h5v5H95V20M110 20h5v5H110V20M120 20h5v5H120V20M130 20h5v5H130V20M150 20h5v5H150V20M155 20h5v5H155V20M160 20h5v5H160V20M165 20h5v5H165V20M170 20h5v5H170V20M175 20h5v5H175V20M180 20h5v5H180V20M20 25h5v5H20V25M50 25h5v5H50V25M70 25h5v5H70V25M80 25h5v5H80V25M85 25h5v5H85V25M90 25h5v5H90V25M100 25h5v5H100V25M105 25h5v5H105V25M110 25h5v5H110V25M120 25h5v5H120V25M130 25h5v5H130V25M150 25h5v5H150V25M180 25h5v5H180V25M20 30h5v5H20V30M30 30h5v5H30V30M35 30h5v5H35V30M40 30h5v5H40V30M50 30h5v5H50V30M60 30h5v5H60V30M70 30h5v5H70V30M90 30h5v5H90V30M95 30h5v5H95V30M110 30h5v5H110V30M115 30h5v5H115V30M120 30h5v5H120V30M150 30h5v5H150V30M160 30h5v5H160V30M165 30h5v5H165V30M170 30h5v5H170V30M180 30h5v5H180V30M20 35h5v5H20V35M30 35h5v5H30V35M35 35h5v5H35V35M40 35h5v5H40V35M50 35h5v5H50V35M90 35h5v5H90V35M100 35h5v5H100V35M110 35h5v5H110V35M120 35h5v5H120V35M125 35h5v5H125V35M130 35h5v5H130V35M135 35h5v5H135V35M150 35h5v5H150V35M160 35h5v5H160V35M165 35h5v5H165V35M170 35h5v5H170V35M180 35h5v5H180V35M20 40h5v5H20V40M30 40h5v5H30V40M35 40h5v5H35V40M40 40h5v5H40V40M50 40h5v5H50V40M65 40h5v5H65V40M70 40h5v5H70V40M80 40h5v5H80V40M90 40h5v5H90V40M95 40h5v5H95V40M100 40h5v5H100V40M105 40h5v5H105V40M110 40h5v5H110V40M115 40h5v5H115V40M120 40h5v5H120V40M125 40h5v5H125V40M130 40h5v5H130V40M135 40h5v5H135V40M140 40h5v5H140V40M150 40h5v5H150V40M160 40h5v5H160V40M165 40h5v5H165V40M170 40h5v5H170V40M180 40h5v5H180V40M20 45h5v5H20V45M50 45h5v5H50V45M60 45h5v5H60V45M65 45h5v5H65V45M75 45h5v5H75V45M100 45h5v5H100V45M105 45h5v5H105V45M110 45h5v5H110V45M120 45h5v5H120V45M125 45h5v5H125V45M135 45h5v5H135V45M140 45h5v5H140V45M150 45h5v5H150V45M180 45h5v5H180V45M20 50h5v5H20V50M25 50h5v5H25V50M30 50h5v5H30V50M35 50h5v5H35V50M40 50h5v5H40V50M45 50h5v5H45V50M50 50h5v5H50V50M60 50h5v5H60V50M70 50h5v5H70V50M80 50h5v5H80V50M90 50h5v5H90V50M100 50h5v5H100V50M110 50h5v5H110V50M120 50h5v5H120V50M130 50h5v5H130V50M140 50h5v5H140V50M150 50h5v5H150V50M155 50h5v5H155V50M160 50h5v5H160V50M165 50h5v5H165V50M170 50h5v5H170V50M175 50h5v5H175V50M180 50h5v5H180V50M65 55h5v5H65V55M70 55h5v5H70V55M75 55h5v5H75V55M80 55h5v5H80V55M90 55h5v5H90V55M130 55h5v5H130V55M140 55h5v5H140V55M20 60h5v5H20V60M30 60h5v5H30V60M50 60h5v5H50V60M55 60h5v5H55V60M80 60h5v5H80V60M85 60h5v5H85V60M95 60h5v5H95V60M105 60h5v5H105V60M115 60h5v5H115V60M120 60h5v5H120V60M140 60h5v5H140V60M155 60h5v5H155V60M170 60h5v5H170V60M180 60h5v5H180V60M20 65h5v5H20V65M55 65h5v5H55V65M70 65h5v5H70V65M80 65h5v5H80V65M115 65h5v5H115V65M120 65h5v5H120V65M125 65h5v5H125V65M135 65h5v5H135V65M150 65h5v5H150V65M165 65h5v5H165V65M25 70h5v5H25V70M30 70h5v5H30V70M50 70h5v5H50V70M55 70h5v5H55V70M70 70h5v5H70V70M75 70h5v5H75V70M80 70h5v5H80V70M85 70h5v5H85V70M90 70h5v5H90V70M95 70h5v5H95V70M100 70h5v5H100V70M105 70h5v5H105V70M110 70h5v5H110V70M115 70h5v5H115V70M125 70h5v5H125V70M135 70h5v5H135V70M140 70h5v5H140V70M165 70h5v5H165V70M170 70h5v5H170V70M25 75h5v5H25V75M80 75h5v5H80V75M90 75h5v5H90V75M110 75h5v5H110V75M125 75h5v5H125V75M140 75h5v5H140V75M150 75h5v5H150V75M155 75h5v5H155V75M160 75h5v5H160V75M165 75h5v5H165V75M25 80h5v5H25V80M30 80h5v5H30V80M45 80h5v5H45V80M50 80h5v5H50V80M75 80h5v5H75V80M80 80h5v5H80V80M85 80h5v5H85V80M90 80h5v5H90V80M95 80h5v5H95V80M100 80h5v5H100V80M105 80h5v5H105V80M110 80h5v5H110V80M115 80h5v5H115V80M120 80h5v5H120V80M135 80h5v5H135V80M140 80h5v5H140V80M150 80h5v5H150V80M155 80h5v5H155V80M180 80h5v5H180V80M35 85h5v5H35V85M45 85h5v5H45V85M55 85h5v5H55V85M70 85h5v5H70V85M75 85h5v5H75V85M90 85h5v5H90V85M100 85h5v5H100V85M110 85h5v5H110V85M120 85h5v5H120V85M125 85h5v5H125V85M135 85h5v5H135V85M140 85h5v5H140V85M150 85h5v5H150V85M160 85h5v5H160V85M170 85h5v5H170V85M175 85h5v5H175V85M180 85h5v5H180V85M35 90h5v5H35V90M50 90h5v5H50V90M55 90h5v5H55V90M65 90h5v5H65V90M75 90h5v5H75V90M85 90h5v5H85V90M100 90h5v5H100V90M110 90h5v5H110V90M120 90h5v5H120V90M155 90h5v5H155V90M160 90h5v5H160V90M165 90h5v5H165V90M170 90h5v5H170V90M180 90h5v5H180V90M40 95h5v5H40V95M55 95h5v5H55V95M60 95h5v5H60V95M65 95h5v5H65V95M85 95h5v5H85V95M90 95h5v5H90V95M95 95h5v5H95V95M100 95h5v5H100V95M115 95h5v5H115V95M120 95h5v5H120V95M140 95h5v5H140V95M145 95h5v5H145V95M150 95h5v5H150V95M155 95h5v5H155V95M160 95h5v5H160V95M170 95h5v5H170V95M25 100h5v5H25V100M50 100h5v5H50V100M60 100h5v5H60V100M80 100h5v5H80V100M85 100h5v5H85V100M120 100h5v5H120V100M130 100h5v5H130V100M150 100h5v5H150V100M155 100h5v5H155V100M165 100h5v5H165V100M170 100h5v5H170V100M175 100h5v5H175V100M30 105h5v5H30V105M40 105h5v5H40V105M45 105h5v5H45V105M55 105h5v5H55V105M70 105h5v5H70V105M105 105h5v5H105V105M115 105h5v5H115V105M120 105h5v5H120V105M125 105h5v5H125V105M130 105h5v5H130V105M135 105h5v5H135V105M140 105h5v5H140V105M145 105h5v5H145V105M150 105h5v5H150V105M165 105h5v5H165V105M180 105h5v5H180V105M20 110h5v5H20V110M30 110h5v5H30V110M35 110h5v5H35V110M50 110h5v5H50V110M60 110h5v5H60V110M65 110h5v5H65V110M80 110h5v5H80V110M85 110h5v5H85V110M90 110h5v5H90V110M95 110h5v5H95V110M100 110h5v5H100V110M115 110h5v5H115V110M125 110h5v5H125V110M135 110h5v5H135V110M155 110h5v5H155V110M165 110h5v5H165V110M170 110h5v5H170V110M175 110h5v5H175V110M180 110h5v5H180V110M30 115h5v5H30V115M45 115h5v5H45V115M60 115h5v5H60V115M75 115h5v5H75V115M95 115h5v5H95V115M100 115h5v5H100V115M105 115h5v5H105V115M130 115h5v5H130V115M135 115h5v5H135V115M150 115h5v5H150V115M160 115h5v5H160V115M165 115h5v5H165V115M180 115h5v5H180V115M45 120h5v5H45V120M50 120h5v5H50V120M60 120h5v5H60V120M95 120h5v5H95V120M105 120h5v5H105V120M115 120h5v5H115V120M120 120h5v5H120V120M130 120h5v5H130V120M135 120h5v5H135V120M140 120h5v5H140V120M145 120h5v5H145V120M150 120h5v5H150V120M155 120h5v5H155V120M175 120h5v5H175V120M180 120h5v5H180V120M30 125h5v5H30V125M35 125h5v5H35V125M45 125h5v5H45V125M55 125h5v5H55V125M60 125h5v5H60V125M70 125h5v5H70V125M80 125h5v5H80V125M105 125h5v5H105V125M125 125h5v5H125V125M140 125h5v5H140V125M155 125h5v5H155V125M170 125h5v5H170V125M180 125h5v5H180V125M20 130h5v5H20V130M25 130h5v5H25V130M30 130h5v5H30V130M35 130h5v5H35V130M40 130h5v5H40V130M45 130h5v5H45V130M50 130h5v5H50V130M65 130h5v5H65V130M80 130h5v5H80V130M85 130h5v5H85V130M90 130h5v5H90V130M95 130h5v5H95V130M115 130h5v5H115V130M120 130h5v5H120V130M135 130h5v5H135V130M140 130h5v5H140V130M150 130h5v5H150V130M155 130h5v5H155V130M160 130h5v5H160V130M165 130h5v5H165V130M170 130h5v5H170V130M180 130h5v5H180V130M35 135h5v5H35V135M55 135h5v5H55V135M65 135h5v5H65V135M75 135h5v5H75V135M85 135h5v5H85V135M90 135h5v5H90V135M110 135h5v5H110V135M130 135h5v5H130V135M135 135h5v5H135V135M140 135h5v5H140V135M160 135h5v5H160V135M170 135h5v5H170V135M175 135h5v5H175V135M180 135h5v5H180V135M20 140h5v5H20V140M25 140h5v5H25V140M30 140h5v5H30V140M40 140h5v5H40V140M45 140h5v5H45V140M50 140h5v5H50V140M55 140h5v5H55V140M60 140h5v5H60V140M70 140h5v5H70V140M75 140h5v5H75V140M85 140h5v5H85V140M95 140h5v5H95V140M100 140h5v5H100V140M115 140h5v5H115V140M120 140h5v5H120V140M130 140h5v5H130V140M140 140h5v5H140V140M145 140h5v5H145V140M150 140h5v5H150V140M155 140h5v5H155V140M160 140h5v5H160V140M165 140h5v5H165V140M170 140h5v5H170V140M175 140h5v5H175V140M60 145h5v5H60V145M65 145h5v5H65V145M70 145h5v5H70V145M80 145h5v5H80V145M85 145h5v5H85V145M90 145h5v5H90V145M95 145h5v5H95V145M110 145h5v5H110V145M115 145h5v5H115V145M120 145h5v5H120V145M125 145h5v5H125V145M135 145h5v5H135V145M140 145h5v5H140V145M160 145h5v5H160V145M20 150h5v5H20V150M25 150h5v5H25V150M30 150h5v5H30V150M35 150h5v5H35V150M40 150h5v5H40V150M45 150h5v5H45V150M50 150h5v5H50V150M60 150h5v5H60V150M75 150h5v5H75V150M85 150h5v5H85V150M95 150h5v5H95V150M100 150h5v5H100V150M105 150h5v5H105V150M110 150h5v5H110V150M115 150h5v5H115V150M140 150h5v5H140V150M150 150h5v5H150V150M160 150h5v5H160V150M165 150h5v5H165V150M170 150h5v5H170V150M175 150h5v5H175V150M20 155h5v5H20V155M50 155h5v5H50V155M70 155h5v5H70V155M80 155h5v5H80V155M85 155h5v5H85V155M90 155h5v5H90V155M100 155h5v5H100V155M110 155h5v5H110V155M115 155h5v5H115V155M135 155h5v5H135V155M140 155h5v5H140V155M160 155h5v5H160V155M165 155h5v5H165V155M20 160h5v5H20V160M30 160h5v5H30V160M35 160h5v5H35V160M40 160h5v5H40V160M50 160h5v5H50V160M70 160h5v5H70V160M75 160h5v5H75V160M85 160h5v5H85V160M95 160h5v5H95V160M100 160h5v5H100V160M105 160h5v5H105V160M110 160h5v5H110V160M120 160h5v5H120V160M135 160h5v5H135V160M140 160h5v5H140V160M145 160h5v5H145V160M150 160h5v5H150V160M155 160h5v5H155V160M160 160h5v5H160V160M180 160h5v5H180V160M20 165h5v5H20V165M30 165h5v5H30V165M35 165h5v5H35V165M40 165h5v5H40V165M50 165h5v5H50V165M75 165h5v5H75V165M90 165h5v5H90V165M100 165h5v5H100V165M105 165h5v5H105V165M110 165h5v5H110V165M135 165h5v5H135V165M145 165h5v5H145V165M155 165h5v5H155V165M160 165h5v5H160V165M165 165h5v5H165V165M175 165h5v5H175V165M20 170h5v5H20V170M30 170h5v5H30V170M35 170h5v5H35V170M40 170h5v5H40V170M50 170h5v5H50V170M60 170h5v5H60V170M65 170h5v5H65V170M70 170h5v5H70V170M80 170h5v5H80V170M85 170h5v5H85V170M90 170h5v5H90V170M100 170h5v5H100V170M105 170h5v5H105V170M110 170h5v5H110V170M120 170h5v5H120V170M140 170h5v5H140V170M145 170h5v5H145V170M155 170h5v5H155V170M160 170h5v5H160V170M165 170h5v5H165V170M170 170h5v5H170V170M175 170h5v5H175V170M180 170h5v5H180V170M20 175h5v5H20V175M50 175h5v5H50V175M65 175h5v5H65V175M70 175h5v5H70V175M75 175h5v5H75V175M80 175h5v5H80V175M85 175h5v5H85V175M95 175h5v5H95V175M100 175h5v5H100V175M110 175h5v5H110V175M115 175h5v5H115V175M120 175h5v5H120V175M140 175h5v5H140V175M145 175h5v5H145V175M150 175h5v5H150V175M155 175h5v5H155V175M160 175h5v5H160V175M165 175h5v5H165V175M170 175h5v5H170V175M20 180h5v5H20V180M25 180h5v5H25V180M30 180h5v5H30V180M35 180h5v5H35V180M40 180h5v5H40V180M45 180h5v5H45V180M50 180h5v5H50V180M60 180h5v5H60V180M65 180h5v5H65V180M70 180h5v5H70V180M90 180h5v5H90V180M100 180h5v5H100V180M120 180h5v5H120V180M125 180h5v5H125V180M135 180h5v5H135V180M140 180h5v5H140V180M150 180h5v5H150V180M155 180h5v5H155V180M160 180h5v5H160V180M165 180h5v5H165V180M170 180h5v5H170V180M180 180h5v5H180V180"/></svg>