<?xml version="1.0" standalone="yes"?><svg xmlns="http://www.w3.org/2000/svg" version="1.1" width="205" height="205" viewBox="0 0 205 205" shape-rendering="crispEdges"><rect x="0" y="0" width="205" height="205" fill="#E26E42"/><path fill="#800000" d="M20 20h5v5H20V20M25 20h5v5H25V20M30 20h5v5H30V20M35 20h5v5H35V20M40 20h5v5H40V20M45 20h5v5H45V20M50 20h5v5H50V20M60 20h5v5H60V20M65 20h5v5H65V20M75 20h5v5H75V20M85 20h5v5H85V20M95 20h5v5H95V20M100 20h5v5H100V20M105 20h5v5H105V20M110 20h5v5H110V20M130 20h5v5H130V20M150 20h5v5H150V20M155 20h5v5H155V20M160 20h5v5H160V20M165 20h5v5H165V20M170 20h5v5H170V20M175 20h5v5H175V20M180 20h5v5H180V20M20 25h5v5H20V25M50 25h5v5H50V25M60 25h5v5H60V25M75 25h5v5H75V25M85 25h5v5H85V25M90 25h5v5H90V25M110 25h5v5H110V25M115 25h5v5H115V25M120 25h5v5H120V25M130 25h5v5H130V25M140 25h5v5H140V25M150 25h5v5H150V25M180 25h5v5H180V25M20 30h5v5H20V30M30 30h5v5H30V30M35 30h5v5H35V30M40 30h5v5H40V30M50 30h5v5H50V30M60 30h5v5H60V30M65 30h5v5H65V30M85 30h5v5H85V30M90 30h5v5H90V30M95 30h5v5H95V30M100 30h5v5H100V30M115 30h5v5H115V30M120 30h5v5H120V30M135 30h5v5H135V30M150 30h5v5H150V30M160 30h5v5H160V30M165 30h5v5H165V30M170 30h5v5H170V30M180 30h5v5H180V30M20 35h5v5H20V35M30 35h5v5H30V35M35 35h5v5H35V35M40 35h5v5H40V35M50 35h5v5H50V35M70 35h5v5H70V35M90 35h5v5H90V35M100 35h5v5H100V35M110 35h5v5H110V35M115 35h5v5H115V35M120 35h5v5H120V35M130 35h5v5H130V35M135 35h5v5H135V35M140 35h5v5H140V35M150 35h5v5H150V35M160 35h5v5H160V35M165 35h5v5H165V35M170 35h5v5H170V35M180 35h5v5H180V35M20 40h5v5H20V40M30 40h5v5H30V40M35 40h5v5H35V40M40 40h5v5H40V40M50 40h5v5H50V40M60 40h5v5H60V40M70 40h5v5H70V40M95 40h5v5H95V40M100 40h5v5H100V40M125 40h5v5H125V40M150 40h5v5H150V40M160 40h5v5H160V40M165 40h5v5H165V40M170 40h5v5H170V40M180 40h5v5H180V40M20 45h5v5H20V45M50 45h5v5H50V45M70 45h5v5H70V45M75 45h5v5H75V45M85 45h5v5H85V45M90 45h5v5H90V45M95 45h5v5H95V45M100 45h5v5H100V45M105 45h5v5H105V45M115 45h5v5H115V45M125 45h5v5H125V45M130 45h5v5H130V45M150 45h5v5H150V45M180 45h5v5H180V45M20 50h5v5H20V50M25 50h5v5H25V50M30 50h5v5H30V50M35 50h5v5H35V50M40 50h5v5H40V50M45 50h5v5H45V50M50 50h5v5H50V50M60 50h5v5H60V50M70 50h5v5H70V50M80 50h5v5H80V50M90 50h5v5H90V50M100 50h5v5H100V50M110 50h5v5H110V50M120 50h5v5H120V50M130 50h5v5H130V50M140 50h5v5H140V50M150 50h5v5H150V50M155 50h5v5H155V50M160 50h5v5H160V50M165 50h5v5H165V50M170 50h5v5H170V50M175 50h5v5H175V50M180 50h5v5H180V50M65 55h5v5H65V55M70 55h5v5H70V55M90 55h5v5H90V55M95 55h5v5H95V55M100 55h5v5H100V55M110 55h5v5H110V55M130 55h5v5H130V55M20 60h5v5H20V60M35 60h5v5H35V60M40 60h5v5H40V60M45 60h5v5H45V60M50 60h5v5H50V60M55 60h5v5H55V60M60 60h5v5H60V60M65 60h5v5H65V60M70 60h5v5H70V60M75 60h5v5H75V60M80 60h5v5H80V60M105 60h5v5H105V60M110 60h5v5H110V60M135 60h5v5H135V60M140 60h5v5H140V60M145 60h5v5H145V60M160 60h5v5H160V60M170 60h5v5H170V60M175 60h5v5H175V60M180 60h5v5H180V60M20 65h5v5H20V65M45 65h5v5H45V65M60 65h5v5H60V65M65 65h5v5H65V65M80 65h5v5H80V65M85 65h5v5H85V65M90 65h5v5H90V65M100 65h5v5H100V65M105 65h5v5H105V65M110 65h5v5H110V65M115 65h5v5H115V65M125 65h5v5H125V65M130 65h5v5H130V65M135 65h5v5H135V65M140 65h5v5H140V65M160 65h5v5H160V65M165 65h5v5H165V65M170 65h5v5H170V65M25 70h5v5H25V70M30 70h5v5H30V70M35 70h5v5H35V70M45 70h5v5H45V70M50 70h5v5H50V70M55 70h5v5H55V70M60 70h5v5H60V70M65 70h5v5H65V70M70 70h5v5H70V70M75 70h5v5H75V70M80 70h5v5H80V70M85 70h5v5H85V70M95 70h5v5H95V70M120 70h5v5H120V70M125 70h5v5H125V70M130 70h5v5H130V70M135 70h5v5H135V70M140 70h5v5H140V70M145 70h5v5H145V70M160 70h5v5H160V70M165 70h5v5H165V70M170 70h5v5H170V70M180 70h5v5H180V70M20 75h5v5H20V75M30 75h5v5H30V75M40 75h5v5H40V75M45 75h5v5H45V75M55 75h5v5H55V75M60 75h5v5H60V75M75 75h5v5H75V75M85 75h5v5H85V75M95 75h5v5H95V75M110 75h5v5H110V75M120 75h5v5H120V75M125 75h5v5H125V75M135 75h5v5H135V75M155 75h5v5H155V75M170 75h5v5H170V75M180 75h5v5H180V75M20 80h5v5H20V80M30 80h5v5H30V80M35 80h5v5H35V80M45 80h5v5H45V80M50 80h5v5H50V80M60 80h5v5H60V80M70 80h5v5H70V80M75 80h5v5H75V80M80 80h5v5H80V80M85 80h5v5H85V80M95 80h5v5H95V80M105 80h5v5H105V80M120 80h5v5H120V80M135 80h5v5H135V80M140 80h5v5H140V80M145 80h5v5H145V80M155 80h5v5H155V80M175 80h5v5H175V80M180 80h5v5H180V80M20 85h5v5H20V85M55 85h5v5H55V85M60 85h5v5H60V85M65 85h5v5H65V85M75 85h5v5H75V85M80 85h5v5H80V85M85 85h5v5H85V85M90 85h5v5H90V85M110 85h5v5H110V85M115 85h5v5H115V85M120 85h5v5H120V85M125 85h5v5H125V85M145 85h5v5H145V85M160 85h5v5H160V85M165 85h5v5H165V85M170 85h5v5H170V85M20 90h5v5H20V90M40 90h5v5H40V90M50 90h5v5H50V90M65 90h5v5H65V90M70 90h5v5H70V90M75 90h5v5H75V90M80 90h5v5H80V90M95 90h5v5H95V90M105 90h5v5H105V90M115 90h5v5H115V90M140 90h5v5H140V90M150 90h5v5H150V90M160 90h5v5H160V90M170 90h5v5H170V90M20 95h5v5H20V95M45 95h5v5H45V95M55 95h5v5H55V95M60 95h5v5H60V95M65 95h5v5H65V95M70 95h5v5H70V95M80 95h5v5H80V95M85 95h5v5H85V95M90 95h5v5H90V95M100 95h5v5H100V95M110 95h5v5H110V95M120 95h5v5H120V95M130 95h5v5H130V95M135 95h5v5H135V95M145 95h5v5H145V95M165 95h5v5H165V95M180 95h5v5H180V95M25 100h5v5H25V100M35 100h5v5H35V100M50 100h5v5H50V100M55 100h5v5H55V100M60 100h5v5H60V100M65 100h5v5H65V100M80 100h5v5H80V100M90 100h5v5H90V100M95 100h5v5H95V100M105 100h5v5H105V100M120 100h5v5H120V100M145 100h5v5H145V100M150 100h5v5H150V100M155 100h5v5H155V100M160 100h5v5H160V100M165 100h5v5H165V100M170 100h5v5H170V100M20 105h5v5H20V105M35 105h5v5H35V105M40 105h5v5H40V105M45 105h5v5H45V105M70 105h5v5H70V105M75 105h5v5H75V105M80 105h5v5H80V105M85 105h5v5H85V105M90 105h5v5H90V105M95 105h5v5H95V105M100 105h5v5H100V105M105 105h5v5H105V105M110 105h5v5H110V105M115 105h5v5H115V105M120 105h5v5H120V105M125 105h5v5H125V105M145 105h5v5H145V105M150 105h5v5H150V105M160 105h5v5H160V105M170 105h5v5H170V105M25 110h5v5H25V110M35 110h5v5H35V110M50 110h5v5H50V110M60 110h5v5H60V110M65 110h5v5H65V110M70 110h5v5H70V110M80 110h5v5H80V110M95 110h5v5H95V110M100 110h5v5H100V110M105 110h5v5H105V110M110 110h5v5H110V110M115 110h5v5H115V110M120 110h5v5H120V110M125 110h5v5H125V110M135 110h5v5H135V110M155 110h5v5H155V110M165 110h5v5H165V110M170 110h5v5H170V110M175 110h5v5H175V110M25 115h5v5H25V115M40 115h5v5H40V115M60 115h5v5H60V115M70 115h5v5H70V115M100 115h5v5H100V115M115 115h5v5H115V115M125 115h5v5H125V115M135 115h5v5H135V115M140 115h5v5H140V115M145 115h5v5H145V115M160 115h5v5H160V115M165 115h5v5H165V115M170 115h5v5H170V115M175 115h5v5H175V115M180 115h5v5H180V115M20 120h5v5H20V120M25 120h5v5H25V120M35 120h5v5H35V120M40 120h5v5H40V120M50 120h5v5H50V120M60 120h5v5H60V120M75 120h5v5H75V120M85 120h5v5H85V120M90 120h5v5H90V120M95 120h5v5H95V120M100 120h5v5H100V120M110 120h5v5H110V120M140 120h5v5H140V120M155 120h5v5H155V120M160 120h5v5H160V120M165 120h5v5H165V120M20 125h5v5H20V125M25 125h5v5H25V125M30 125h5v5H30V125M45 125h5v5H45V125M55 125h5v5H55V125M60 125h5v5H60V125M65 125h5v5H65V125M80 125h5v5H80V125M85 125h5v5H85V125M120 125h5v5H120V125M125 125h5v5H125V125M130 125h5v5H130V125M135 125h5v5H135V125M140 125h5v5H140V125M155 125h5v5H155V125M20 130h5v5H20V130M50 130h5v5H50V130M55 130h5v5H55V130M60 130h5v5H60V130M65 130h5v5H65V130M70 130h5v5H70V130M75 130h5v5H75V130M80 130h5v5H80V130M85 130h5v5H85V130M110 130h5v5H110V130M115 130h5v5H115V130M120 130h5v5H120V130M130 130h5v5H130V130M135 130h5v5H135V130M145 130h5v5H145V130M150 130h5v5H150V130M155 130h5v5H155V130M170 130h5v5H170V130M175 130h5v5H175V130M180 130h5v5H180V130M20 135h5v5H20V135M30 135h5v5H30V135M35 135h5v5H35V135M45 135h5v5H45V135M55 135h5v5H55V135M60 135h5v5H60V135M65 135h5v5H65V135M70 135h5v5H70V135M85 135h5v5H85V135M95 135h5v5H95V135M105 135h5v5H105V135M110 135h5v5H110V135M115 135h5v5H115V135M120 135h5v5H120V135M135 135h5v5H135V135M155 135h5v5H155V135M160 135h5v5H160V135M170 135h5v5H170V135M20 140h5v5H20V140M25 140h5v5H25V140M35 140h5v5H35V140M45 140h5v5H45V140M50 140h5v5H50V140M60 140h5v5H60V140M80 140h5v5H80V140M85 140h5v5H85V140M90 140h5v5H90V140M100 140h5v5H100V140M120 140h5v5H120V140M130 140h5v5H130V140M140 140h5v5H140V140M145 140h5v5H145V140M150 140h5v5H150V140M155 140h5v5H155V140M160 140h5v5H160V140M165 140h5v5H165V140M60 145h5v5H60V145M70 145h5v5H70V145M75 145h5v5H75V145M95 145h5v5H95V145M100 145h5v5H100V145M105 145h5v5H105V145M110 145h5v5H110V145M125 145h5v5H125V145M135 145h5v5H135V145M140 145h5v5H140V145M160 145h5v5H160V145M170 145h5v5H170V145M20 150h5v5H20V150M25 150h5v5H25V150M30 150h5v5H30V150M35 150h5v5H35V150M40 150h5v5H40V150M45 150h5v5H45V150M50 150h5v5H50V150M60 150h5v5H60V150M80 150h5v5H80V150M90 150h5v5H90V150M95 150h5v5H95V150M105 150h5v5H105V150M115 150h5v5H115V150M120 150h5v5H120V150M125 150h5v5H125V150M135 150h5v5H135V150M140 150h5v5H140V150M150 150h5v5H150V150M160 150h5v5H160V150M170 150h5v5H170V150M175 150h5v5H175V150M180 150h5v5H180V150M20 155h5v5H20V155M50 155h5v5H50V155M60 155h5v5H60V155M80 155h5v5H80V155M85 155h5v5H85V155M90 155h5v5H90V155M100 155h5v5H100V155M105 155h5v5H105V155M110 155h5v5H110V155M115 155h5v5H115V155M135 155h5v5H135V155M140 155h5v5H140V155M160 155h5v5H160V155M165 155h5v5H165V155M170 155h5v5H170V155M20 160h5v5H20V160M30 160h5v5H30V160M35 160h5v5H35V160M40 160h5v5H40V160M50 160h5v5H50V160M60 160h5v5H60V160M65 160h5v5H65V160M75 160h5v5H75V160M90 160h5v5H90V160M100 160h5v5H100V160M105 160h5v5H105V160M115 160h5v5H115V160M120 160h5v5H120V160M135 160h5v5H135V160M140 160h5v5H140V160M145 160h5v5H145V160M150 160h5v5H150V160M155 160h5v5H155V160M160 160h5v5H160V160M175 160h5v5H175V160M180 160h5v5H180V160M20 165h5v5H20V165M30 165h5v5H30V165M35 165h5v5H35V165M40 165h5v5H40V165M50 165h5v5H50V165M60 165h5v5H60V165M65 165h5v5H65V165M70 165h5v5H70V165M75 165h5v5H75V165M80 165h5v5H80V165M100 165h5v5H100V165M110 165h5v5H110V165M115 165h5v5H115V165M120 165h5v5H120V165M130 165h5v5H130V165M140 165h5v5H140V165M145 165h5v5H145V165M155 165h5v5H155V165M165 165h5v5H165V165M175 165h5v5H175V165M20 170h5v5H20V170M30 170h5v5H30V170M35 170h5v5H35V170M40 170h5v5H40V170M50 170h5v5H50V170M65 170h5v5H65V170M85 170h5v5H85V170M90 170h5v5H90V170M95 170h5v5H95V170M115 170h5v5H115V170M120 170h5v5H120V170M140 170h5v5H140V170M145 170h5v5H145V170M155 170h5v5H155V170M160 170h5v5H160V170M170 170h5v5H170V170M175 170h5v5H175V170M180 170h5v5H180V170M20 175h5v5H20V175M50 175h5v5H50V175M65 175h5v5H65V175M70 175h5v5H70V175M80 175h5v5H80V175M85 175h5v5H85V175M90 175h5v5H90V175M140 175h5v5H140V175M155 175h5v5H155V175M160 175h5v5H160V175M165 175h5v5H165V175M170 175h5v5H170V175M175 175h5v5H175V175M180 175h5v5H180V175M20 180h5v5H20V180M25 180h5v5H25V180M30 180h5v5H30V180M35 180h5v5H35V180M40 180h5v5H40V180M45 180h5v5H45V180M50 180h5v5H50V180M60 180h5v5H60V180M65 180h5v5H65V180M85 180h5v5H85V180M90 180h5v5H90V180M95 180h5v5H95V180M105 180h5v5H105V180M125 180h5v5H125V180M140 180h5v5H140V180M145 180h5v5H145V180M150 180h5v5H150V180M155 180h5v5H155V180M160 180h5v5H160V180"/></svg>