<?xml version="1.0" standalone="yes"?><svg xmlns="http://www.w3.org/2000/svg" version="1.1" width="205" height="205" viewBox="0 0 205 205" shape-rendering="crispEdges"><rect x="0" y="0" width="205" height="205" fill="#E26E42"/><path fill="#800000" d="M20 20h5v5H20V20M25 20h5v5H25V20M30 20h5v5H30V20M35 20h5v5H35V20M40 20h5v5H40V20M45 20h5v5H45V20M50 20h5v5H50V20M65 20h5v5H65V20M75 20h5v5H75V20M85 20h5v5H85V20M95 20h5v5H95V20M105 20h5v5H105V20M110 20h5v5H110V20M115 20h5v5H115V20M120 20h5v5H120V20M125 20h5v5H125V20M130 20h5v5H130V20M135 20h5v5H135V20M150 20h5v5H150V20M155 20h5v5H155V20M160 20h5v5H160V20M165 20h5v5H165V20M170 20h5v5H170V20M175 20h5v5H175V20M180 20h5v5H180V20M20 25h5v5H20V25M50 25h5v5H50V25M60 25h5v5H60V25M65 25h5v5H65V25M90 25h5v5H90V25M95 25h5v5H95V25M110 25h5v5H110V25M115 25h5v5H115V25M125 25h5v5H125V25M130 25h5v5H130V25M135 25h5v5H135V25M150 25h5v5H150V25M180 25h5v5H180V25M20 30h5v5H20V30M30 30h5v5H30V30M35 30h5v5H35V30M40 30h5v5H40V30M50 30h5v5H50V30M65 30h5v5H65V30M85 30h5v5H85V30M90 30h5v5H90V30M105 30h5v5H105V30M110 30h5v5H110V30M125 30h5v5H125V30M135 30h5v5H135V30M150 30h5v5H150V30M160 30h5v5H160V30M165 30h5v5H165V30M170 30h5v5H170V30M180 30h5v5H180V30M20 35h5v5H20V35M30 35h5v5H30V35M35 35h5v5H35V35M40 35h5v5H40V35M50 35h5v5H50V35M65 35h5v5H65V35M70 35h5v5H70V35M75 35h5v5H75V35M85 35h5v5H85V35M90 35h5v5H90V35M95 35h5v5H95V35M100 35h5v5H100V35M105 35h5v5H105V35M110 35h5v5H110V35M115 35h5v5H115V35M120 35h5v5H120V35M130 35h5v5H130V35M150 35h5v5H150V35M160 35h5v5H160V35M165 35h5v5H165V35M170 35h5v5H170V35M180 35h5v5H180V35M20 40h5v5H20V40M30 40h5v5H30V40M35 40h5v5H35V40M40 40h5v5H40V40M50 40h5v5H50V40M60 40h5v5H60V40M70 40h5v5H70V40M80 40h5v5H80V40M85 40h5v5H85V40M90 40h5v5H90V40M100 40h5v5H100V40M110 40h5v5H110V40M120 40h5v5H120V40M130 40h5v5H130V40M140 40h5v5H140V40M150 40h5v5H150V40M160 40h5v5H160V40M165 40h5v5H165V40M170 40h5v5H170V40M180 40h5v5H180V40M20 45h5v5H20V45M50 45h5v5H50V45M65 45h5v5H65V45M95 45h5v5H95V45M100 45h5v5H100V45M110 45h5v5H110V45M115 45h5v5H115V45M120 45h5v5H120V45M140 45h5v5H140V45M150 45h5v5H150V45M180 45h5v5H180V45M20 50h5v5H20V50M25 50h5v5H25V50M30 50h5v5H30V50M35 50h5v5H35V50M40 50h5v5H40V50M45 50h5v5H45V50M50 50h5v5H50V50M60 50h5v5H60V50M70 50h5v5H70V50M80 50h5v5H80V50M90 50h5v5H90V50M100 50h5v5H100V50M110 50h5v5H110V50M120 50h5v5H120V50M130 50h5v5H130V50M140 50h5v5H140V50M150 50h5v5H150V50M155 50h5v5H155V50M160 50h5v5H160V50M165 50h5v5H165V50M170 50h5v5H170V50M175 50h5v5H175V50M180 50h5v5H180V50M65 55h5v5H65V55M80 55h5v5H80V55M85 55h5v5H85V55M90 55h5v5H90V55M95 55h5v5H95V55M105 55h5v5H105V55M115 55h5v5H115V55M125 55h5v5H125V55M130 55h5v5H130V55M135 55h5v5H135V55M140 55h5v5H140V55M20 60h5v5H20V60M30 60h5v5H30V60M40 60h5v5H40V60M50 60h5v5H50V60M75 60h5v5H75V60M120 60h5v5H120V60M125 60h5v5H125V60M135 60h5v5H135V60M140 60h5v5H140V60M160 60h5v5H160V60M175 60h5v5H175V60M25 65h5v5H25V65M30 65h5v5H30V65M35 65h5v5H35V65M55 65h5v5H55V65M60 65h5v5H60V65M75 65h5v5H75V65M80 65h5v5H80V65M85 65h5v5H85V65M90 65h5v5H90V65M95 65h5v5H95V65M105 65h5v5H105V65M120 65h5v5H120V65M145 65h5v5H145V65M150 65h5v5H150V65M155 65h5v5H155V65M175 65h5v5H175V65M25 70h5v5H25V70M30 70h5v5H30V70M40 70h5v5H40V70M45 70h5v5H45V70M50 70h5v5H50V70M55 70h5v5H55V70M60 70h5v5H60V70M80 70h5v5H80V70M90 70h5v5H90V70M100 70h5v5H100V70M110 70h5v5H110V70M120 70h5v5H120V70M140 70h5v5H140V70M145 70h5v5H145V70M155 70h5v5H155V70M170 70h5v5H170V70M175 70h5v5H175V70M20 75h5v5H20V75M35 75h5v5H35V75M40 75h5v5H40V75M45 75h5v5H45V75M55 75h5v5H55V75M60 75h5v5H60V75M65 75h5v5H65V75M75 75h5v5H75V75M85 75h5v5H85V75M90 75h5v5H90V75M95 75h5v5H95V75M105 75h5v5H105V75M110 75h5v5H110V75M115 75h5v5H115V75M120 75h5v5H120V75M135 75h5v5H135V75M140 75h5v5H140V75M145 75h5v5H145V75M150 75h5v5H150V75M160 75h5v5H160V75M175 75h5v5H175V75M20 80h5v5H20V80M35 80h5v5H35V80M50 80h5v5H50V80M65 80h5v5H65V80M70 80h5v5H70V80M80 80h5v5H80V80M90 80h5v5H90V80M100 80h5v5H100V80M110 80h5v5H110V80M120 80h5v5H120V80M125 80h5v5H125V80M140 80h5v5H140V80M145 80h5v5H145V80M150 80h5v5H150V80M165 80h5v5H165V80M175 80h5v5H175V80M180 80h5v5H180V80M30 85h5v5H30V85M65 85h5v5H65V85M70 85h5v5H70V85M85 85h5v5H85V85M90 85h5v5H90V85M95 85h5v5H95V85M100 85h5v5H100V85M105 85h5v5H105V85M110 85h5v5H110V85M115 85h5v5H115V85M120 85h5v5H120V85M140 85h5v5H140V85M145 85h5v5H145V85M150 85h5v5H150V85M155 85h5v5H155V85M160 85h5v5H160V85M165 85h5v5H165V85M170 85h5v5H170V85M180 85h5v5H180V85M25 90h5v5H25V90M30 90h5v5H30V90M35 90h5v5H35V90M40 90h5v5H40V90M45 90h5v5H45V90M50 90h5v5H50V90M70 90h5v5H70V90M85 90h5v5H85V90M90 90h5v5H90V90M95 90h5v5H95V90M100 90h5v5H100V90M105 90h5v5H105V90M110 90h5v5H110V90M115 90h5v5H115V90M120 90h5v5H120V90M125 90h5v5H125V90M135 90h5v5H135V90M145 90h5v5H145V90M160 90h5v5H160V90M165 90h5v5H165V90M170 90h5v5H170V90M175 90h5v5H175V90M180 90h5v5H180V90M20 95h5v5H20V95M25 95h5v5H25V95M30 95h5v5H30V95M35 95h5v5H35V95M40 95h5v5H40V95M45 95h5v5H45V95M55 95h5v5H55V95M60 95h5v5H60V95M65 95h5v5H65V95M75 95h5v5H75V95M85 95h5v5H85V95M100 95h5v5H100V95M105 95h5v5H105V95M120 95h5v5H120V95M125 95h5v5H125V95M135 95h5v5H135V95M140 95h5v5H140V95M150 95h5v5H150V95M160 95h5v5H160V95M165 95h5v5H165V95M170 95h5v5H170V95M175 95h5v5H175V95M30 100h5v5H30V100M35 100h5v5H35V100M40 100h5v5H40V100M45 100h5v5H45V100M50 100h5v5H50V100M60 100h5v5H60V100M70 100h5v5H70V100M75 100h5v5H75V100M80 100h5v5H80V100M85 100h5v5H85V100M95 100h5v5H95V100M105 100h5v5H105V100M115 100h5v5H115V100M120 100h5v5H120V100M125 100h5v5H125V100M130 100h5v5H130V100M135 100h5v5H135V100M145 100h5v5H145V100M150 100h5v5H150V100M20 105h5v5H20V105M25 105h5v5H25V105M30 105h5v5H30V105M35 105h5v5H35V105M55 105h5v5H55V105M65 105h5v5H65V105M70 105h5v5H70V105M90 105h5v5H90V105M95 105h5v5H95V105M120 105h5v5H120V105M130 105h5v5H130V105M140 105h5v5H140V105M150 105h5v5H150V105M155 105h5v5H155V105M175 105h5v5H175V105M180 105h5v5H180V105M25 110h5v5H25V110M30 110h5v5H30V110M35 110h5v5H35V110M40 110h5v5H40V110M50 110h5v5H50V110M55 110h5v5H55V110M60 110h5v5H60V110M80 110h5v5H80V110M85 110h5v5H85V110M100 110h5v5H100V110M105 110h5v5H105V110M145 110h5v5H145V110M170 110h5v5H170V110M180 110h5v5H180V110M25 115h5v5H25V115M30 115h5v5H30V115M45 115h5v5H45V115M60 115h5v5H60V115M70 115h5v5H70V115M75 115h5v5H75V115M100 115h5v5H100V115M120 115h5v5H120V115M125 115h5v5H125V115M130 115h5v5H130V115M145 115h5v5H145V115M150 115h5v5H150V115M155 115h5v5H155V115M160 115h5v5H160V115M175 115h5v5H175V115M180 115h5v5H180V115M25 120h5v5H25V120M30 120h5v5H30V120M35 120h5v5H35V120M45 120h5v5H45V120M50 120h5v5H50V120M55 120h5v5H55V120M60 120h5v5H60V120M65 120h5v5H65V120M70 120h5v5H70V120M75 120h5v5H75V120M80 120h5v5H80V120M85 120h5v5H85V120M115 120h5v5H115V120M120 120h5v5H120V120M125 120h5v5H125V120M130 120h5v5H130V120M140 120h5v5H140V120M150 120h5v5H150V120M160 120h5v5H160V120M165 120h5v5H165V120M180 120h5v5H180V120M25 125h5v5H25V125M30 125h5v5H30V125M40 125h5v5H40V125M75 125h5v5H75V125M80 125h5v5H80V125M85 125h5v5H85V125M90 125h5v5H90V125M95 125h5v5H95V125M115 125h5v5H115V125M135 125h5v5H135V125M140 125h5v5H140V125M145 125h5v5H145V125M165 125h5v5H165V125M170 125h5v5H170V125M175 125h5v5H175V125M180 125h5v5H180V125M20 130h5v5H20V130M35 130h5v5H35V130M50 130h5v5H50V130M60 130h5v5H60V130M65 130h5v5H65V130M70 130h5v5H70V130M90 130h5v5H90V130M105 130h5v5H105V130M120 130h5v5H120V130M125 130h5v5H125V130M140 130h5v5H140V130M145 130h5v5H145V130M150 130h5v5H150V130M170 130h5v5H170V130M175 130h5v5H175V130M180 130h5v5H180V130M25 135h5v5H25V135M30 135h5v5H30V135M40 135h5v5H40V135M60 135h5v5H60V135M80 135h5v5H80V135M95 135h5v5H95V135M105 135h5v5H105V135M110 135h5v5H110V135M115 135h5v5H115V135M125 135h5v5H125V135M130 135h5v5H130V135M140 135h5v5H140V135M145 135h5v5H145V135M155 135h5v5H155V135M160 135h5v5H160V135M165 135h5v5H165V135M170 135h5v5H170V135M180 135h5v5H180V135M20 140h5v5H20V140M30 140h5v5H30V140M35 140h5v5H35V140M50 140h5v5H50V140M65 140h5v5H65V140M75 140h5v5H75V140M100 140h5v5H100V140M105 140h5v5H105V140M120 140h5v5H120V140M125 140h5v5H125V140M130 140h5v5H130V140M135 140h5v5H135V140M140 140h5v5H140V140M145 140h5v5H145V140M150 140h5v5H150V140M155 140h5v5H155V140M160 140h5v5H160V140M170 140h5v5H170V140M60 145h5v5H60V145M80 145h5v5H80V145M90 145h5v5H90V145M105 145h5v5H105V145M110 145h5v5H110V145M120 145h5v5H120V145M140 145h5v5H140V145M160 145h5v5H160V145M165 145h5v5H165V145M175 145h5v5H175V145M20 150h5v5H20V150M25 150h5v5H25V150M30 150h5v5H30V150M35 150h5v5H35V150M40 150h5v5H40V150M45 150h5v5H45V150M50 150h5v5H50V150M65 150h5v5H65V150M85 150h5v5H85V150M90 150h5v5H90V150M100 150h5v5H100V150M110 150h5v5H110V150M120 150h5v5H120V150M125 150h5v5H125V150M135 150h5v5H135V150M140 150h5v5H140V150M150 150h5v5H150V150M160 150h5v5H160V150M170 150h5v5H170V150M20 155h5v5H20V155M50 155h5v5H50V155M65 155h5v5H65V155M75 155h5v5H75V155M80 155h5v5H80V155M85 155h5v5H85V155M90 155h5v5H90V155M95 155h5v5H95V155M100 155h5v5H100V155M105 155h5v5H105V155M110 155h5v5H110V155M115 155h5v5H115V155M120 155h5v5H120V155M125 155h5v5H125V155M140 155h5v5H140V155M160 155h5v5H160V155M175 155h5v5H175V155M180 155h5v5H180V155M20 160h5v5H20V160M30 160h5v5H30V160M35 160h5v5H35V160M40 160h5v5H40V160M50 160h5v5H50V160M60 160h5v5H60V160M65 160h5v5H65V160M80 160h5v5H80V160M90 160h5v5H90V160M100 160h5v5H100V160M110 160h5v5H110V160M120 160h5v5H120V160M125 160h5v5H125V160M140 160h5v5H140V160M145 160h5v5H145V160M150 160h5v5H150V160M155 160h5v5H155V160M160 160h5v5H160V160M165 160h5v5H165V160M20 165h5v5H20V165M30 165h5v5H30V165M35 165h5v5H35V165M40 165h5v5H40V165M50 165h5v5H50V165M65 165h5v5H65V165M70 165h5v5H70V165M75 165h5v5H75V165M80 165h5v5H80V165M90 165h5v5H90V165M95 165h5v5H95V165M100 165h5v5H100V165M110 165h5v5H110V165M115 165h5v5H115V165M125 165h5v5H125V165M160 165h5v5H160V165M20 170h5v5H20V170M30 170h5v5H30V170M35 170h5v5H35V170M40 170h5v5H40V170M50 170h5v5H50V170M60 170h5v5H60V170M65 170h5v5H65V170M95 170h5v5H95V170M100 170h5v5H100V170M110 170h5v5H110V170M115 170h5v5H115V170M120 170h5v5H120V170M125 170h5v5H125V170M135 170h5v5H135V170M140 170h5v5H140V170M160 170h5v5H160V170M170 170h5v5H170V170M180 170h5v5H180V170M20 175h5v5H20V175M50 175h5v5H50V175M65 175h5v5H65V175M75 175h5v5H75V175M85 175h5v5H85V175M90 175h5v5H90V175M100 175h5v5H100V175M105 175h5v5H105V175M110 175h5v5H110V175M120 175h5v5H120V175M125 175h5v5H125V175M135 175h5v5H135V175M140 175h5v5H140V175M150 175h5v5H150V175M160 175h5v5H160V175M170 175h5v5H170V175M175 175h5v5H175V175M20 180h5v5H20V180M25 180h5v5H25V180M30 180h5v5H30V180M35 180h5v5H35V180M40 180h5v5H40V180M45 180h5v5H45V180M50 180h5v5H50V180M60 180h5v5H60V180M70 180h5v5H70V180M75 180h5v5H75V180M85 180h5v5H85V180M90 180h5v5H90V180M95 180h5v5H95V180M100 180h5v5H100V180M105 180h5v5H105V180M115 180h5v5H115V180M140 180h5v5H140V180M145 180h5v5H145V180M150 180h5v5H150V180M160 180h5v5H160V180M170 180h5v5H170V180M175 180h5v5H175V180M180 180h5v5H180V180"/></svg>