<?xml version="1.0" standalone="yes"?><svg xmlns="http://www.w3.org/2000/svg" version="1.1" width="205" height="205" viewBox="0 0 205 205" shape-rendering="crispEdges"><rect x="0" y="0" width="205" height="205" fill="#E26E42"/><path fill="#800000" d="M20 20h5v5H20V20M25 20h5v5H25V20M30 20h5v5H30V20M35 20h5v5H35V20M40 20h5v5H40V20M45 20h5v5H45V20M50 20h5v5H50V20M60 20h5v5H60V20M65 20h5v5H65V20M85 20h5v5H85V20M90 20h5v5H90V20M95 20h5v5H95V20M110 20h5v5H110V20M135 20h5v5H135V20M150 20h5v5H150V20M155 20h5v5H155V20M160 20h5v5H160V20M165 20h5v5H165V20M170 20h5v5H170V20M175 20h5v5H175V20M180 20h5v5H180V20M20 25h5v5H20V25M50 25h5v5H50V25M65 25h5v5H65V25M75 25h5v5H75V25M85 25h5v5H85V25M90 25h5v5H90V25M100 25h5v5H100V25M110 25h5v5H110V25M115 25h5v5H115V25M120 25h5v5H120V25M130 25h5v5H130V25M140 25h5v5H140V25M150 25h5v5H150V25M180 25h5v5H180V25M20 30h5v5H20V30M30 30h5v5H30V30M35 30h5v5H35V30M40 30h5v5H40V30M50 30h5v5H50V30M90 30h5v5H90V30M100 30h5v5H100V30M105 30h5v5H105V30M115 30h5v5H115V30M140 30h5v5H140V30M150 30h5v5H150V30M160 30h5v5H160V30M165 30h5v5H165V30M170 30h5v5H170V30M180 30h5v5H180V30M20 35h5v5H20V35M30 35h5v5H30V35M35 35h5v5H35V35M40 35h5v5H40V35M50 35h5v5H50V35M60 35h5v5H60V35M70 35h5v5H70V35M80 35h5v5H80V35M95 35h5v5H95V35M100 35h5v5H100V35M105 35h5v5H105V35M115 35h5v5H115V35M120 35h5v5H120V35M125 35h5v5H125V35M150 35h5v5H150V35M160 35h5v5H160V35M165 35h5v5H165V35M170 35h5v5H170V35M180 35h5v5H180V35M20 40h5v5H20V40M30 40h5v5H30V40M35 40h5v5H35V40M40 40h5v5H40V40M50 40h5v5H50V40M60 40h5v5H60V40M70 40h5v5H70V40M75 40h5v5H75V40M85 40h5v5H85V40M100 40h5v5H100V40M105 40h5v5H105V40M110 40h5v5H110V40M115 40h5v5H115V40M135 40h5v5H135V40M140 40h5v5H140V40M150 40h5v5H150V40M160 40h5v5H160V40M165 40h5v5H165V40M170 40h5v5H170V40M180 40h5v5H180V40M20 45h5v5H20V45M50 45h5v5H50V45M60 45h5v5H60V45M65 45h5v5H65V45M70 45h5v5H70V45M95 45h5v5H95V45M105 45h5v5H105V45M110 45h5v5H110V45M125 45h5v5H125V45M135 45h5v5H135V45M150 45h5v5H150V45M180 45h5v5H180V45M20 50h5v5H20V50M25 50h5v5H25V50M30 50h5v5H30V50M35 50h5v5H35V50M40 50h5v5H40V50M45 50h5v5H45V50M50 50h5v5H50V50M60 50h5v5H60V50M70 50h5v5H70V50M80 50h5v5H80V50M90 50h5v5H90V50M100 50h5v5H100V50M110 50h5v5H110V50M120 50h5v5H120V50M130 50h5v5H130V50M140 50h5v5H140V50M150 50h5v5H150V50M155 50h5v5H155V50M160 50h5v5H160V50M165 50h5v5H165V50M170 50h5v5H170V50M175 50h5v5H175V50M180 50h5v5H180V50M60 55h5v5H60V55M65 55h5v5H65V55M80 55h5v5H80V55M105 55h5v5H105V55M120 55h5v5H120V55M125 55h5v5H125V55M135 55h5v5H135V55M20 60h5v5H20V60M40 60h5v5H40V60M50 60h5v5H50V60M55 60h5v5H55V60M60 60h5v5H60V60M75 60h5v5H75V60M85 60h5v5H85V60M90 60h5v5H90V60M95 60h5v5H95V60M100 60h5v5H100V60M105 60h5v5H105V60M120 60h5v5H120V60M125 60h5v5H125V60M130 60h5v5H130V60M140 60h5v5H140V60M145 60h5v5H145V60M150 60h5v5H150V60M155 60h5v5H155V60M160 60h5v5H160V60M165 60h5v5H165V60M180 60h5v5H180V60M20 65h5v5H20V65M30 65h5v5H30V65M40 65h5v5H40V65M65 65h5v5H65V65M70 65h5v5H70V65M95 65h5v5H95V65M100 65h5v5H100V65M105 65h5v5H105V65M110 65h5v5H110V65M125 65h5v5H125V65M135 65h5v5H135V65M140 65h5v5H140V65M145 65h5v5H145V65M165 65h5v5H165V65M170 65h5v5H170V65M175 65h5v5H175V65M25 70h5v5H25V70M30 70h5v5H30V70M35 70h5v5H35V70M40 70h5v5H40V70M45 70h5v5H45V70M50 70h5v5H50V70M55 70h5v5H55V70M75 70h5v5H75V70M85 70h5v5H85V70M90 70h5v5H90V70M95 70h5v5H95V70M100 70h5v5H100V70M110 70h5v5H110V70M125 70h5v5H125V70M130 70h5v5H130V70M135 70h5v5H135V70M150 70h5v5H150V70M165 70h5v5H165V70M180 70h5v5H180V70M20 75h5v5H20V75M30 75h5v5H30V75M55 75h5v5H55V75M70 75h5v5H70V75M85 75h5v5H85V75M95 75h5v5H95V75M115 75h5v5H115V75M135 75h5v5H135V75M140 75h5v5H140V75M180 75h5v5H180V75M20 80h5v5H20V80M30 80h5v5H30V80M45 80h5v5H45V80M50 80h5v5H50V80M60 80h5v5H60V80M80 80h5v5H80V80M85 80h5v5H85V80M95 80h5v5H95V80M100 80h5v5H100V80M120 80h5v5H120V80M125 80h5v5H125V80M140 80h5v5H140V80M145 80h5v5H145V80M155 80h5v5H155V80M165 80h5v5H165V80M40 85h5v5H40V85M60 85h5v5H60V85M65 85h5v5H65V85M70 85h5v5H70V85M80 85h5v5H80V85M85 85h5v5H85V85M90 85h5v5H90V85M105 85h5v5H105V85M110 85h5v5H110V85M115 85h5v5H115V85M125 85h5v5H125V85M130 85h5v5H130V85M150 85h5v5H150V85M170 85h5v5H170V85M20 90h5v5H20V90M25 90h5v5H25V90M30 90h5v5H30V90M40 90h5v5H40V90M50 90h5v5H50V90M65 90h5v5H65V90M85 90h5v5H85V90M90 90h5v5H90V90M95 90h5v5H95V90M115 90h5v5H115V90M120 90h5v5H120V90M140 90h5v5H140V90M145 90h5v5H145V90M150 90h5v5H150V90M160 90h5v5H160V90M175 90h5v5H175V90M20 95h5v5H20V95M25 95h5v5H25V95M40 95h5v5H40V95M70 95h5v5H70V95M80 95h5v5H80V95M85 95h5v5H85V95M95 95h5v5H95V95M100 95h5v5H100V95M105 95h5v5H105V95M120 95h5v5H120V95M125 95h5v5H125V95M130 95h5v5H130V95M135 95h5v5H135V95M140 95h5v5H140V95M145 95h5v5H145V95M150 95h5v5H150V95M155 95h5v5H155V95M165 95h5v5H165V95M170 95h5v5H170V95M25 100h5v5H25V100M35 100h5v5H35V100M40 100h5v5H40V100M45 100h5v5H45V100M50 100h5v5H50V100M65 100h5v5H65V100M70 100h5v5H70V100M80 100h5v5H80V100M90 100h5v5H90V100M105 100h5v5H105V100M110 100h5v5H110V100M115 100h5v5H115V100M120 100h5v5H120V100M125 100h5v5H125V100M135 100h5v5H135V100M150 100h5v5H150V100M160 100h5v5H160V100M165 100h5v5H165V100M170 100h5v5H170V100M175 100h5v5H175V100M25 105h5v5H25V105M55 105h5v5H55V105M65 105h5v5H65V105M75 105h5v5H75V105M85 105h5v5H85V105M90 105h5v5H90V105M95 105h5v5H95V105M100 105h5v5H100V105M110 105h5v5H110V105M125 105h5v5H125V105M130 105h5v5H130V105M135 105h5v5H135V105M165 105h5v5H165V105M170 105h5v5H170V105M175 105h5v5H175V105M180 105h5v5H180V105M20 110h5v5H20V110M30 110h5v5H30V110M50 110h5v5H50V110M55 110h5v5H55V110M60 110h5v5H60V110M75 110h5v5H75V110M80 110h5v5H80V110M90 110h5v5H90V110M95 110h5v5H95V110M100 110h5v5H100V110M105 110h5v5H105V110M125 110h5v5H125V110M135 110h5v5H135V110M140 110h5v5H140V110M150 110h5v5H150V110M155 110h5v5H155V110M165 110h5v5H165V110M180 110h5v5H180V110M25 115h5v5H25V115M30 115h5v5H30V115M60 115h5v5H60V115M65 115h5v5H65V115M75 115h5v5H75V115M80 115h5v5H80V115M90 115h5v5H90V115M100 115h5v5H100V115M105 115h5v5H105V115M110 115h5v5H110V115M115 115h5v5H115V115M145 115h5v5H145V115M155 115h5v5H155V115M180 115h5v5H180V115M40 120h5v5H40V120M50 120h5v5H50V120M65 120h5v5H65V120M70 120h5v5H70V120M85 120h5v5H85V120M110 120h5v5H110V120M120 120h5v5H120V120M125 120h5v5H125V120M140 120h5v5H140V120M150 120h5v5H150V120M155 120h5v5H155V120M165 120h5v5H165V120M175 120h5v5H175V120M20 125h5v5H20V125M30 125h5v5H30V125M35 125h5v5H35V125M55 125h5v5H55V125M60 125h5v5H60V125M65 125h5v5H65V125M70 125h5v5H70V125M75 125h5v5H75V125M85 125h5v5H85V125M90 125h5v5H90V125M100 125h5v5H100V125M120 125h5v5H120V125M125 125h5v5H125V125M130 125h5v5H130V125M150 125h5v5H150V125M170 125h5v5H170V125M175 125h5v5H175V125M45 130h5v5H45V130M50 130h5v5H50V130M65 130h5v5H65V130M70 130h5v5H70V130M75 130h5v5H75V130M80 130h5v5H80V130M85 130h5v5H85V130M90 130h5v5H90V130M100 130h5v5H100V130M110 130h5v5H110V130M115 130h5v5H115V130M120 130h5v5H120V130M140 130h5v5H140V130M145 130h5v5H145V130M160 130h5v5H160V130M165 130h5v5H165V130M175 130h5v5H175V130M30 135h5v5H30V135M75 135h5v5H75V135M105 135h5v5H105V135M120 135h5v5H120V135M125 135h5v5H125V135M135 135h5v5H135V135M140 135h5v5H140V135M155 135h5v5H155V135M180 135h5v5H180V135M20 140h5v5H20V140M25 140h5v5H25V140M30 140h5v5H30V140M50 140h5v5H50V140M55 140h5v5H55V140M65 140h5v5H65V140M75 140h5v5H75V140M80 140h5v5H80V140M90 140h5v5H90V140M95 140h5v5H95V140M100 140h5v5H100V140M120 140h5v5H120V140M125 140h5v5H125V140M140 140h5v5H140V140M145 140h5v5H145V140M150 140h5v5H150V140M155 140h5v5H155V140M160 140h5v5H160V140M170 140h5v5H170V140M60 145h5v5H60V145M95 145h5v5H95V145M100 145h5v5H100V145M105 145h5v5H105V145M110 145h5v5H110V145M135 145h5v5H135V145M140 145h5v5H140V145M160 145h5v5H160V145M170 145h5v5H170V145M180 145h5v5H180V145M20 150h5v5H20V150M25 150h5v5H25V150M30 150h5v5H30V150M35 150h5v5H35V150M40 150h5v5H40V150M45 150h5v5H45V150M50 150h5v5H50V150M60 150h5v5H60V150M80 150h5v5H80V150M85 150h5v5H85V150M90 150h5v5H90V150M95 150h5v5H95V150M110 150h5v5H110V150M120 150h5v5H120V150M125 150h5v5H125V150M130 150h5v5H130V150M140 150h5v5H140V150M150 150h5v5H150V150M160 150h5v5H160V150M165 150h5v5H165V150M20 155h5v5H20V155M50 155h5v5H50V155M80 155h5v5H80V155M95 155h5v5H95V155M100 155h5v5H100V155M120 155h5v5H120V155M140 155h5v5H140V155M160 155h5v5H160V155M20 160h5v5H20V160M30 160h5v5H30V160M35 160h5v5H35V160M40 160h5v5H40V160M50 160h5v5H50V160M60 160h5v5H60V160M65 160h5v5H65V160M70 160h5v5H70V160M75 160h5v5H75V160M90 160h5v5H90V160M95 160h5v5H95V160M100 160h5v5H100V160M115 160h5v5H115V160M125 160h5v5H125V160M140 160h5v5H140V160M145 160h5v5H145V160M150 160h5v5H150V160M155 160h5v5H155V160M160 160h5v5H160V160M165 160h5v5H165V160M175 160h5v5H175V160M180 160h5v5H180V160M20 165h5v5H20V165M30 165h5v5H30V165M35 165h5v5H35V165M40 165h5v5H40V165M50 165h5v5H50V165M65 165h5v5H65V165M90 165h5v5H90V165M110 165h5v5H110V165M115 165h5v5H115V165M120 165h5v5H120V165M130 165h5v5H130V165M135 165h5v5H135V165M140 165h5v5H140V165M150 165h5v5H150V165M155 165h5v5H155V165M160 165h5v5H160V165M165 165h5v5H165V165M170 165h5v5H170V165M180 165h5v5H180V165M20 170h5v5H20V170M30 170h5v5H30V170M35 170h5v5H35V170M40 170h5v5H40V170M50 170h5v5H50V170M65 170h5v5H65V170M70 170h5v5H70V170M75 170h5v5H75V170M80 170h5v5H80V170M90 170h5v5H90V170M95 170h5v5H95V170M110 170h5v5H110V170M115 170h5v5H115V170M120 170h5v5H120V170M150 170h5v5H150V170M155 170h5v5H155V170M160 170h5v5H160V170M165 170h5v5H165V170M20 175h5v5H20V175M50 175h5v5H50V175M95 175h5v5H95V175M100 175h5v5H100V175M105 175h5v5H105V175M110 175h5v5H110V175M120 175h5v5H120V175M125 175h5v5H125V175M130 175h5v5H130V175M150 175h5v5H150V175M165 175h5v5H165V175M170 175h5v5H170V175M20 180h5v5H20V180M25 180h5v5H25V180M30 180h5v5H30V180M35 180h5v5H35V180M40 180h5v5H40V180M45 180h5v5H45V180M50 180h5v5H50V180M60 180h5v5H60V180M90 180h5v5H90V180M105 180h5v5H105V180M130 180h5v5H130V180M150 180h5v5H150V180M165 180h5v5H165V180M170 180h5v5H170V180M180 180h5v5H180V180"/></svg>