<?xml version="1.0" standalone="yes"?><svg xmlns="http://www.w3.org/2000/svg" version="1.1" width="205" height="205" viewBox="0 0 205 205" shape-rendering="crispEdges"><rect x="0" y="0" width="205" height="205" fill="#E26E42"/><path fill="#800000" d="M20 20h5v5H20V20M25 20h5v5H25V20M30 20h5v5H30V20M35 20h5v5H35V20M40 20h5v5H40V20M45 20h5v5H45V20M50 20h5v5H50V20M60 20h5v5H60V20M65 20h5v5H65V20M80 20h5v5H80V20M90 20h5v5H90V20M95 20h5v5H95V20M110 20h5v5H110V20M115 20h5v5H115V20M120 20h5v5H120V20M135 20h5v5H135V20M150 20h5v5H150V20M155 20h5v5H155V20M160 20h5v5H160V20M165 20h5v5H165V20M170 20h5v5H170V20M175 20h5v5H175V20M180 20h5v5H180V20M20 25h5v5H20V25M50 25h5v5H50V25M60 25h5v5H60V25M75 25h5v5H75V25M80 25h5v5H80V25M90 25h5v5H90V25M105 25h5v5H105V25M130 25h5v5H130V25M135 25h5v5H135V25M150 25h5v5H150V25M180 25h5v5H180V25M20 30h5v5H20V30M30 30h5v5H30V30M35 30h5v5H35V30M40 30h5v5H40V30M50 30h5v5H50V30M65 30h5v5H65V30M85 30h5v5H85V30M90 30h5v5H90V30M100 30h5v5H100V30M110 30h5v5H110V30M120 30h5v5H120V30M125 30h5v5H125V30M135 30h5v5H135V30M140 30h5v5H140V30M150 30h5v5H150V30M160 30h5v5H160V30M165 30h5v5H165V30M170 30h5v5H170V30M180 30h5v5H180V30M20 35h5v5H20V35M30 35h5v5H30V35M35 35h5v5H35V35M40 35h5v5H40V35M50 35h5v5H50V35M60 35h5v5H60V35M65 35h5v5H65V35M70 35h5v5H70V35M75 35h5v5H75V35M80 35h5v5H80V35M95 35h5v5H95V35M110 35h5v5H110V35M125 35h5v5H125V35M135 35h5v5H135V35M140 35h5v5H140V35M150 35h5v5H150V35M160 35h5v5H160V35M165 35h5v5H165V35M170 35h5v5H170V35M180 35h5v5H180V35M20 40h5v5H20V40M30 40h5v5H30V40M35 40h5v5H35V40M40 40h5v5H40V40M50 40h5v5H50V40M100 40h5v5H100V40M105 40h5v5H105V40M110 40h5v5H110V40M140 40h5v5H140V40M150 40h5v5H150V40M160 40h5v5H160V40M165 40h5v5H165V40M170 40h5v5H170V40M180 40h5v5H180V40M20 45h5v5H20V45M50 45h5v5H50V45M65 45h5v5H65V45M70 45h5v5H70V45M75 45h5v5H75V45M90 45h5v5H90V45M95 45h5v5H95V45M100 45h5v5H100V45M105 45h5v5H105V45M110 45h5v5H110V45M125 45h5v5H125V45M130 45h5v5H130V45M135 45h5v5H135V45M140 45h5v5H140V45M150 45h5v5H150V45M180 45h5v5H180V45M20 50h5v5H20V50M25 50h5v5H25V50M30 50h5v5H30V50M35 50h5v5H35V50M40 50h5v5H40V50M45 50h5v5H45V50M50 50h5v5H50V50M60 50h5v5H60V50M70 50h5v5H70V50M80 50h5v5H80V50M90 50h5v5H90V50M100 50h5v5H100V50M110 50h5v5H110V50M120 50h5v5H120V50M130 50h5v5H130V50M140 50h5v5H140V50M150 50h5v5H150V50M155 50h5v5H155V50M160 50h5v5H160V50M165 50h5v5H165V50M170 50h5v5H170V50M175 50h5v5H175V50M180 50h5v5H180V50M60 55h5v5H60V55M80 55h5v5H80V55M90 55h5v5H90V55M95 55h5v5H95V55M100 55h5v5H100V55M105 55h5v5H105V55M110 55h5v5H110V55M115 55h5v5H115V55M130 55h5v5H130V55M135 55h5v5H135V55M140 55h5v5H140V55M20 60h5v5H20V60M30 60h5v5H30V60M35 60h5v5H35V60M45 60h5v5H45V60M50 60h5v5H50V60M55 60h5v5H55V60M70 60h5v5H70V60M75 60h5v5H75V60M80 60h5v5H80V60M95 60h5v5H95V60M105 60h5v5H105V60M125 60h5v5H125V60M135 60h5v5H135V60M150 60h5v5H150V60M165 60h5v5H165V60M175 60h5v5H175V60M180 60h5v5H180V60M20 65h5v5H20V65M30 65h5v5H30V65M35 65h5v5H35V65M45 65h5v5H45V65M60 65h5v5H60V65M65 65h5v5H65V65M70 65h5v5H70V65M85 65h5v5H85V65M90 65h5v5H90V65M95 65h5v5H95V65M105 65h5v5H105V65M110 65h5v5H110V65M115 65h5v5H115V65M120 65h5v5H120V65M135 65h5v5H135V65M140 65h5v5H140V65M150 65h5v5H150V65M155 65h5v5H155V65M165 65h5v5H165V65M170 65h5v5H170V65M180 65h5v5H180V65M20 70h5v5H20V70M25 70h5v5H25V70M30 70h5v5H30V70M35 70h5v5H35V70M50 70h5v5H50V70M60 70h5v5H60V70M70 70h5v5H70V70M80 70h5v5H80V70M85 70h5v5H85V70M110 70h5v5H110V70M130 70h5v5H130V70M135 70h5v5H135V70M145 70h5v5H145V70M155 70h5v5H155V70M160 70h5v5H160V70M165 70h5v5H165V70M180 70h5v5H180V70M25 75h5v5H25V75M60 75h5v5H60V75M70 75h5v5H70V75M75 75h5v5H75V75M95 75h5v5H95V75M105 75h5v5H105V75M120 75h5v5H120V75M125 75h5v5H125V75M140 75h5v5H140V75M145 75h5v5H145V75M155 75h5v5H155V75M165 75h5v5H165V75M175 75h5v5H175V75M180 75h5v5H180V75M20 80h5v5H20V80M35 80h5v5H35V80M40 80h5v5H40V80M45 80h5v5H45V80M50 80h5v5H50V80M70 80h5v5H70V80M90 80h5v5H90V80M95 80h5v5H95V80M100 80h5v5H100V80M130 80h5v5H130V80M140 80h5v5H140V80M150 80h5v5H150V80M155 80h5v5H155V80M165 80h5v5H165V80M30 85h5v5H30V85M35 85h5v5H35V85M40 85h5v5H40V85M45 85h5v5H45V85M75 85h5v5H75V85M90 85h5v5H90V85M105 85h5v5H105V85M120 85h5v5H120V85M125 85h5v5H125V85M135 85h5v5H135V85M140 85h5v5H140V85M160 85h5v5H160V85M175 85h5v5H175V85M25 90h5v5H25V90M45 90h5v5H45V90M50 90h5v5H50V90M55 90h5v5H55V90M60 90h5v5H60V90M70 90h5v5H70V90M75 90h5v5H75V90M90 90h5v5H90V90M105 90h5v5H105V90M110 90h5v5H110V90M115 90h5v5H115V90M125 90h5v5H125V90M150 90h5v5H150V90M160 90h5v5H160V90M20 95h5v5H20V95M30 95h5v5H30V95M45 95h5v5H45V95M65 95h5v5H65V95M75 95h5v5H75V95M80 95h5v5H80V95M95 95h5v5H95V95M110 95h5v5H110V95M125 95h5v5H125V95M135 95h5v5H135V95M145 95h5v5H145V95M150 95h5v5H150V95M155 95h5v5H155V95M160 95h5v5H160V95M165 95h5v5H165V95M20 100h5v5H20V100M25 100h5v5H25V100M35 100h5v5H35V100M40 100h5v5H40V100M45 100h5v5H45V100M50 100h5v5H50V100M65 100h5v5H65V100M70 100h5v5H70V100M75 100h5v5H75V100M80 100h5v5H80V100M105 100h5v5H105V100M110 100h5v5H110V100M120 100h5v5H120V100M125 100h5v5H125V100M140 100h5v5H140V100M145 100h5v5H145V100M150 100h5v5H150V100M160 100h5v5H160V100M165 100h5v5H165V100M20 105h5v5H20V105M40 105h5v5H40V105M45 105h5v5H45V105M60 105h5v5H60V105M70 105h5v5H70V105M85 105h5v5H85V105M95 105h5v5H95V105M100 105h5v5H100V105M120 105h5v5H120V105M125 105h5v5H125V105M135 105h5v5H135V105M140 105h5v5H140V105M150 105h5v5H150V105M160 105h5v5H160V105M165 105h5v5H165V105M175 105h5v5H175V105M20 110h5v5H20V110M25 110h5v5H25V110M35 110h5v5H35V110M40 110h5v5H40V110M50 110h5v5H50V110M55 110h5v5H55V110M65 110h5v5H65V110M75 110h5v5H75V110M90 110h5v5H90V110M95 110h5v5H95V110M110 110h5v5H110V110M120 110h5v5H120V110M125 110h5v5H125V110M130 110h5v5H130V110M145 110h5v5H145V110M150 110h5v5H150V110M155 110h5v5H155V110M160 110h5v5H160V110M170 110h5v5H170V110M180 110h5v5H180V110M30 115h5v5H30V115M35 115h5v5H35V115M45 115h5v5H45V115M55 115h5v5H55V115M60 115h5v5H60V115M70 115h5v5H70V115M90 115h5v5H90V115M100 115h5v5H100V115M105 115h5v5H105V115M110 115h5v5H110V115M115 115h5v5H115V115M125 115h5v5H125V115M160 115h5v5H160V115M25 120h5v5H25V120M45 120h5v5H45V120M50 120h5v5H50V120M55 120h5v5H55V120M65 120h5v5H65V120M70 120h5v5H70V120M75 120h5v5H75V120M90 120h5v5H90V120M100 120h5v5H100V120M115 120h5v5H115V120M125 120h5v5H125V120M160 120h5v5H160V120M165 120h5v5H165V120M170 120h5v5H170V120M175 120h5v5H175V120M180 120h5v5H180V120M20 125h5v5H20V125M25 125h5v5H25V125M30 125h5v5H30V125M65 125h5v5H65V125M75 125h5v5H75V125M85 125h5v5H85V125M90 125h5v5H90V125M95 125h5v5H95V125M100 125h5v5H100V125M135 125h5v5H135V125M140 125h5v5H140V125M150 125h5v5H150V125M160 125h5v5H160V125M180 125h5v5H180V125M35 130h5v5H35V130M40 130h5v5H40V130M50 130h5v5H50V130M60 130h5v5H60V130M65 130h5v5H65V130M70 130h5v5H70V130M75 130h5v5H75V130M80 130h5v5H80V130M90 130h5v5H90V130M95 130h5v5H95V130M115 130h5v5H115V130M120 130h5v5H120V130M125 130h5v5H125V130M130 130h5v5H130V130M135 130h5v5H135V130M140 130h5v5H140V130M145 130h5v5H145V130M150 130h5v5H150V130M165 130h5v5H165V130M170 130h5v5H170V130M175 130h5v5H175V130M180 130h5v5H180V130M25 135h5v5H25V135M30 135h5v5H30V135M40 135h5v5H40V135M55 135h5v5H55V135M60 135h5v5H60V135M65 135h5v5H65V135M70 135h5v5H70V135M85 135h5v5H85V135M95 135h5v5H95V135M120 135h5v5H120V135M140 135h5v5H140V135M145 135h5v5H145V135M155 135h5v5H155V135M160 135h5v5H160V135M165 135h5v5H165V135M170 135h5v5H170V135M175 135h5v5H175V135M20 140h5v5H20V140M30 140h5v5H30V140M45 140h5v5H45V140M50 140h5v5H50V140M55 140h5v5H55V140M65 140h5v5H65V140M70 140h5v5H70V140M75 140h5v5H75V140M80 140h5v5H80V140M85 140h5v5H85V140M90 140h5v5H90V140M105 140h5v5H105V140M115 140h5v5H115V140M135 140h5v5H135V140M140 140h5v5H140V140M145 140h5v5H145V140M150 140h5v5H150V140M155 140h5v5H155V140M160 140h5v5H160V140M170 140h5v5H170V140M175 140h5v5H175V140M180 140h5v5H180V140M60 145h5v5H60V145M65 145h5v5H65V145M70 145h5v5H70V145M80 145h5v5H80V145M85 145h5v5H85V145M95 145h5v5H95V145M100 145h5v5H100V145M115 145h5v5H115V145M125 145h5v5H125V145M140 145h5v5H140V145M160 145h5v5H160V145M165 145h5v5H165V145M175 145h5v5H175V145M180 145h5v5H180V145M20 150h5v5H20V150M25 150h5v5H25V150M30 150h5v5H30V150M35 150h5v5H35V150M40 150h5v5H40V150M45 150h5v5H45V150M50 150h5v5H50V150M60 150h5v5H60V150M70 150h5v5H70V150M75 150h5v5H75V150M80 150h5v5H80V150M90 150h5v5H90V150M105 150h5v5H105V150M110 150h5v5H110V150M115 150h5v5H115V150M135 150h5v5H135V150M140 150h5v5H140V150M150 150h5v5H150V150M160 150h5v5H160V150M20 155h5v5H20V155M50 155h5v5H50V155M60 155h5v5H60V155M70 155h5v5H70V155M75 155h5v5H75V155M80 155h5v5H80V155M90 155h5v5H90V155M95 155h5v5H95V155M105 155h5v5H105V155M110 155h5v5H110V155M115 155h5v5H115V155M120 155h5v5H120V155M125 155h5v5H125V155M130 155h5v5H130V155M135 155h5v5H135V155M140 155h5v5H140V155M160 155h5v5H160V155M165 155h5v5H165V155M170 155h5v5H170V155M175 155h5v5H175V155M20 160h5v5H20V160M30 160h5v5H30V160M35 160h5v5H35V160M40 160h5v5H40V160M50 160h5v5H50V160M70 160h5v5H70V160M90 160h5v5H90V160M95 160h5v5H95V160M100 160h5v5H100V160M105 160h5v5H105V160M110 160h5v5H110V160M120 160h5v5H120V160M125 160h5v5H125V160M135 160h5v5H135V160M140 160h5v5H140V160M145 160h5v5H145V160M150 160h5v5H150V160M155 160h5v5H155V160M160 160h5v5H160V160M170 160h5v5H170V160M175 160h5v5H175V160M180 160h5v5H180V160M20 165h5v5H20V165M30 165h5v5H30V165M35 165h5v5H35V165M40 165h5v5H40V165M50 165h5v5H50V165M60 165h5v5H60V165M75 165h5v5H75V165M80 165h5v5H80V165M100 165h5v5H100V165M105 165h5v5H105V165M120 165h5v5H120V165M130 165h5v5H130V165M135 165h5v5H135V165M155 165h5v5H155V165M170 165h5v5H170V165M20 170h5v5H20V170M30 170h5v5H30V170M35 170h5v5H35V170M40 170h5v5H40V170M50 170h5v5H50V170M60 170h5v5H60V170M80 170h5v5H80V170M85 170h5v5H85V170M90 170h5v5H90V170M95 170h5v5H95V170M100 170h5v5H100V170M105 170h5v5H105V170M130 170h5v5H130V170M135 170h5v5H135V170M140 170h5v5H140V170M150 170h5v5H150V170M155 170h5v5H155V170M20 175h5v5H20V175M50 175h5v5H50V175M70 175h5v5H70V175M75 175h5v5H75V175M85 175h5v5H85V175M90 175h5v5H90V175M105 175h5v5H105V175M110 175h5v5H110V175M115 175h5v5H115V175M135 175h5v5H135V175M145 175h5v5H145V175M155 175h5v5H155V175M160 175h5v5H160V175M170 175h5v5H170V175M180 175h5v5H180V175M20 180h5v5H20V180M25 180h5v5H25V180M30 180h5v5H30V180M35 180h5v5H35V180M40 180h5v5H40V180M45 180h5v5H45V180M50 180h5v5H50V180M60 180h5v5H60V180M65 180h5v5H65V180M70 180h5v5H70V180M105 180h5v5H105V180M110 180h5v5H110V180M120 180h5v5H120V180M145 180h5v5H145V180M150 180h5v5H150V180M160 180h5v5H160V180"/></svg>